<?xml version="1.0" encoding="UTF-8"?>
<svg width="38px" height="55px" viewBox="0 0 38 55" version="1.1" xmlns="http://www.w3.org/2000/svg" xmlns:xlink="http://www.w3.org/1999/xlink">
    <!-- Generator: Sketch 61.2 (89653) - https://sketch.com -->
    <title>css-3</title>
    <desc>Created with Sketch.</desc>
    <g id="ABOUT" stroke="none" stroke-width="1" fill="none" fill-rule="evenodd">
        <g id="web-design" transform="translate(-32.000000, -1419.000000)" fill-rule="nonzero">
            <g id="03-skill-set" transform="translate(0.000000, 1283.000000)">
                <g id="Skills" transform="translate(32.000000, 136.000000)">
                    <g id="HTML">
                        <g id="html-&amp;-css">
                            <g id="logo">
                                <g id="css-3">
                                    <polygon id="Path" fill="#264DE4" points="18.9767433 55 3.45823111 50.6202417 0 11.1864407 38 11.1864407 34.5381023 50.6140645"></polygon>
                                    <polygon id="Path" fill="#2965F1" points="32.2185531 47.722175 35.2195122 13.9830508 19.4634146 13.9830508 19.4634146 51.2711864"></polygon>
                                    <polygon id="Path" fill="#EBEBEB" points="8.34146341 28.8983051 8.7340658 33.559322 18.5365854 33.559322 18.5365854 28.8983051"></polygon>
                                    <polygon id="Path" fill="#EBEBEB" points="7.41463415 18.6440678 7.8514326 23.3050847 19.4634146 23.3050847 19.4634146 18.6440678"></polygon>
                                    <polygon id="Path" fill="#EBEBEB" points="18.5365854 41.615869 18.5162138 41.6214648 13.3389578 40.1796804 13.0079959 36.3559322 8.34146341 36.3559322 8.99274079 43.8838076 18.5151901 46.6101695 18.5365854 46.604046"></polygon>
                                    <polygon id="Path" fill="#000000" points="9.26829268 0 14.8292683 0 14.8292683 2.48587571 11.5937916 2.48587571 11.5937916 4.97175142 14.8292683 4.97175142 14.8292683 7.45762712 9.26829268 7.45762712"></polygon>
                                    <polygon id="Path" fill="#000000" points="15.7560976 0 21.3170732 0 21.3170732 2.13075061 18.0815964 2.13075061 18.0815964 2.55690073 21.3170732 2.55690073 21.3170732 7.45762712 15.7560976 7.45762712 15.7560976 5.22033899 18.9915742 5.22033899 18.9915742 4.79418886 15.7560976 4.79418886"></polygon>
                                    <polygon id="Path" fill="#000000" points="22.2439024 0 27.804878 0 27.804878 2.13075061 24.5694013 2.13075061 24.5694013 2.55690073 27.804878 2.55690073 27.804878 7.45762712 22.2439024 7.45762712 22.2439024 5.22033899 25.4793792 5.22033899 25.4793792 4.79418886 22.2439024 4.79418886"></polygon>
                                    <polygon id="Path" fill="#FFFFFF" points="29.7170367 28.6406467 30.5853659 18.6440678 18.5365854 18.6440678 18.5365854 23.5830817 25.31417 23.5830817 24.8765102 28.6406467 18.5365854 28.6406467 18.5365854 33.5795518 24.4593986 33.5795518 23.9010965 39.9850105 18.5365854 41.4717939 18.5365854 46.6101695 28.3970665 43.8039881 28.4694095 42.9695623 29.5996777 29.9668967"></polygon>
                                </g>
                            </g>
                        </g>
                    </g>
                </g>
            </g>
        </g>
    </g>
</svg>