<?xml version="1.0" encoding="UTF-8"?>
<svg width="39px" height="55px" viewBox="0 0 39 55" version="1.1" xmlns="http://www.w3.org/2000/svg" xmlns:xlink="http://www.w3.org/1999/xlink">
    <!-- Generator: Sketch 61.2 (89653) - https://sketch.com -->
    <title>html-5</title>
    <desc>Created with Sketch.</desc>
    <g id="ABOUT" stroke="none" stroke-width="1" fill="none" fill-rule="evenodd">
        <g id="web-design" transform="translate(-66.000000, -1437.000000)" fill-rule="nonzero">
            <g id="03-skill-set" transform="translate(0.000000, 1283.000000)">
                <g id="Skills" transform="translate(32.000000, 136.000000)">
                    <g id="HTML">
                        <g id="html-&amp;-css">
                            <g id="logo">
                                <g id="html-5" transform="translate(34.000000, 18.000000)">
                                    <polygon id="Path" fill="#E44D26" points="39 10.2542373 35.4469997 50.5207467 19.4761313 55 3.54923719 50.5270553 0 10.2542373"></polygon>
                                    <polygon id="Path" fill="#F16529" points="19.5 51.2711864 32.2791143 47.722175 35.2857143 13.9830508 19.5 13.9830508"></polygon>
                                    <polygon id="Path" fill="#EBEBEB" points="12.6897586 23.576392 19.5 23.576392 19.5 18.6440678 7.42857143 18.6440678 7.54380699 19.9673266 8.72701223 33.559322 19.5 33.559322 19.5 28.6271066 13.1297103 28.6271066"></polygon>
                                    <polygon id="Path" fill="#EBEBEB" points="13.9610184 36.3559322 9.28571429 36.3559322 9.93821587 43.8838076 19.4785645 46.6101695 19.5 46.604046 19.5 41.615869 19.4795901 41.6214648 14.2926025 40.1796804"></polygon>
                                    <polygon id="Path" fill="#000000" points="3.71428571 0 6.2628495 0 6.2628495 2.46268898 8.59418292 2.46268898 8.59418292 0 11.1428571 0 11.1428571 7.45762712 8.59429336 7.45762712 8.59429336 4.96037408 6.26295993 4.96037408 6.26295993 7.45762712 3.71439614 7.45762712 3.71439614 0"></polygon>
                                    <polygon id="Path" fill="#000000" points="14.1438391 2.4730582 12.0714286 2.4730582 12.0714286 0 18.5714286 0 18.5714286 2.4730582 16.4981 2.4730582 16.4981 7.45762712 14.1439411 7.45762712 14.1439411 2.4730582"></polygon>
                                    <polygon id="Path" fill="#000000" points="20.4285714 0 23.0159051 0 24.6074654 2.62038749 26.1974127 0 28.7857143 0 28.7857143 7.45762712 26.3146132 7.45762712 26.3146132 3.76121736 24.6074654 6.41282052 24.5647786 6.41282052 22.856448 3.76121736 22.856448 7.45762712 20.4285714 7.45762712"></polygon>
                                    <polygon id="Path" fill="#000000" points="29.7142857 0 32.0300546 0 32.0300546 4.99256185 35.2857143 4.99256185 35.2857143 7.45762712 29.7142857 7.45762712"></polygon>
                                    <polygon id="Path" fill="#FFFFFF" points="19.5 33.766393 25.4028978 33.766393 24.8464729 40.0800062 19.5 41.5454711 19.5 46.6101695 29.3273253 43.8442249 29.3994251 43.0217636 30.5258928 30.2055384 30.6428571 28.8983051 19.5 28.8983051"></polygon>
                                    <polygon id="Path" fill="#FFFFFF" points="19.5 23.2936916 19.5 23.3050847 31.1399498 23.3050847 31.236624 22.257431 31.4561835 19.8945395 31.5714286 18.6440678 19.5 18.6440678"></polygon>
                                </g>
                            </g>
                        </g>
                    </g>
                </g>
            </g>
        </g>
    </g>
</svg>