<?xml version="1.0" encoding="UTF-8"?>
<svg width="66px" height="66px" viewBox="0 0 66 66" version="1.1" xmlns="http://www.w3.org/2000/svg" xmlns:xlink="http://www.w3.org/1999/xlink">
    <!-- Generator: Sketch 61.2 (89653) - https://sketch.com -->
    <title>iconfinder_Premiere_pro_2529523</title>
    <desc>Created with Sketch.</desc>
    <g id="ABOUT" stroke="none" stroke-width="1" fill="none" fill-rule="evenodd">
        <g id="web-design" transform="translate(-482.000000, -1697.000000)">
            <g id="03-skill-set" transform="translate(0.000000, 1283.000000)">
                <g id="Skills" transform="translate(32.000000, 136.000000)">
                    <g id="PremierePro" transform="translate(450.000000, 278.000000)">
                        <g id="iconfinder_Premiere_pro_2529523">
                            <rect id="Rectangle" fill="#E976FC" fill-rule="nonzero" x="3" y="3" width="61" height="61"></rect>
                            <rect id="Rectangle" fill="#271300" fill-rule="nonzero" x="6" y="6" width="54" height="54"></rect>
                            <path d="M23.7561905,46 L21.4409524,46 C20.7447619,46 20.1619048,45.4373091 20.1619048,44.7299262 L20,19.4892197 C20,18.9426056 20.2590476,18.476376 20.7771429,18.3156072 C22.0561905,17.9136851 25.5209524,18.0101464 27.2857143,18.0101464 C29.7952381,18.0101464 37,18.3316841 37,28.2028903 C37,28.2028903 36.6114286,35.3249496 25.8285714,36.0323324 C25.1647619,36.0805631 24.8085714,36.2091782 24.8085714,36.8683304 L24.8085714,44.8263875 C24.792381,45.5176935 24.452381,46 23.7561905,46 Z" id="Path" fill="#E876FC" fill-rule="nonzero"></path>
                            <path d="M25,31.9817002 L25.1039283,23.680574 C25.1039283,23.3841052 25.3266318,23.1172833 25.6384168,23.0876364 C27.2418822,22.8652848 32.0077377,22.6725801 31.9928908,27.7866668 C31.9928908,27.7866668 32.4976854,32.3226393 25,31.9817002 Z" id="Path" fill="#2E0013" fill-rule="nonzero"></path>
                            <path d="M40.0153502,35.2632389 C40.0153502,32.4435334 40.029975,29.6238279 40.0007254,26.8041224 C39.9861006,26.1195696 40.1908481,25.7609944 40.7758409,25.549109 C43.130437,24.6363719 45.5727821,24.0822102 48.0736264,24.0007158 C48.6878689,23.9844169 48.9657405,24.2451989 48.9072412,24.9134528 C48.9072412,24.9949472 48.9072412,25.0764416 48.9072412,25.157936 C48.8779916,26.0869719 49.2143624,27.244192 48.760993,27.9287448 C48.2052498,28.8088841 47.2692613,28.3199178 46.4210217,28.3525156 C44.7245425,28.4503088 44.358922,28.6458954 44.358922,30.9603357 C44.358922,35.1654456 44.3296723,39.3705555 44.3735468,43.5756655 C44.3881716,44.6676901 44.0518007,44.9773688 43.1158122,44.9936677 C40.029975,45.0262654 40.0153502,45.0588632 40.0153502,41.6360993 C40.0153502,39.5172454 40.0153502,37.3820927 40.0153502,35.2632389 C40.029975,35.2632389 40.029975,35.2632389 40.0153502,35.2632389 Z" id="Path" fill="#E876FC" fill-rule="nonzero"></path>
                            <rect id="Rectangle" fill="#FFFFFF" x="63" y="63" width="1" height="1"></rect>
                            <rect id="Rectangle" stroke="#E976FC" stroke-width="6" x="3" y="3" width="60" height="60" rx="8"></rect>
                            <rect id="Rectangle" stroke="#271300" x="6.5" y="6.5" width="53" height="53"></rect>
                        </g>
                    </g>
                </g>
            </g>
        </g>
    </g>
</svg>