<?xml version="1.0" encoding="UTF-8"?>
<svg width="62px" height="62px" viewBox="0 0 62 62" version="1.1" xmlns="http://www.w3.org/2000/svg" xmlns:xlink="http://www.w3.org/1999/xlink">
    <!-- Generator: Sketch 61.2 (89653) - https://sketch.com -->
    <title>iconfinder_Premiere_pro_2529523</title>
    <desc>Created with Sketch.</desc>
    <g id="ABOUT" stroke="none" stroke-width="1" fill="none" fill-rule="evenodd">
        <g id="web-design" transform="translate(-484.000000, -1686.000000)">
            <g id="03-skill-set" transform="translate(0.000000, 1283.000000)">
                <g id="Skills" transform="translate(32.000000, 136.000000)">
                    <g id="PremierePro" transform="translate(452.000000, 267.000000)">
                        <g id="iconfinder_Premiere_pro_2529523">
                            <rect id="Rectangle" fill="#271300" fill-rule="nonzero" x="6" y="6" width="50" height="50"></rect>
                            <path d="M22.5352381,44 L20.3561905,44 C19.7009524,44 19.152381,43.4775013 19.152381,42.8206458 L19,19.3828468 C19,18.8752767 19.2438095,18.4423492 19.7314286,18.2930638 C20.9352381,17.9198505 24.1961905,18.0094217 25.8571429,18.0094217 C28.2190476,18.0094217 35,18.3079923 35,27.4741125 C35,27.4741125 34.6342857,34.0874532 24.4857143,34.7443087 C23.8609524,34.7890943 23.5257143,34.9085226 23.5257143,35.5205925 L23.5257143,42.910217 C23.5104762,43.552144 23.1904762,44 22.5352381,44 Z" id="Path" fill="#E876FC" fill-rule="nonzero"></path>
                            <path d="M23,29.9817002 L23.1039283,21.680574 C23.1039283,21.3841052 23.3266318,21.1172833 23.6384168,21.0876364 C25.2418822,20.8652848 30.0077377,20.6725801 29.9928908,25.7866668 C29.9928908,25.7866668 30.4976854,30.3226393 23,29.9817002 Z" id="Path" fill="#2E0013" fill-rule="nonzero"></path>
                            <path d="M38.0153502,32.1905495 C38.0153502,29.6393873 38.029975,27.0882252 38.0007254,24.5370631 C37.9861006,23.9177058 38.1908481,23.5932806 38.7758409,23.4015748 C41.130437,22.5757651 43.5727821,22.0743806 46.0736264,22.0006476 C46.6878689,21.985901 46.9657405,22.2218466 46.9072412,22.8264573 C46.9072412,22.9001903 46.9072412,22.9739233 46.9072412,23.0476563 C46.8779916,23.8882126 47.2143624,24.9352214 46.760993,25.5545786 C46.2052498,26.3508951 45.2692613,25.9084971 44.4210217,25.9379903 C42.7245425,26.0264699 42.358922,26.2034291 42.358922,28.2974466 C42.358922,32.1020698 42.3296723,35.9066931 42.3735468,39.7113164 C42.3881716,40.6993387 42.0518007,40.9795241 41.1158122,40.9942707 C38.029975,41.0237639 38.0153502,41.0532571 38.0153502,37.9564708 C38.0153502,36.0394125 38.0153502,34.1076077 38.0153502,32.1905495 C38.029975,32.1905495 38.029975,32.1905495 38.0153502,32.1905495 Z" id="Path" fill="#E876FC" fill-rule="nonzero"></path>
                            <rect id="Rectangle" stroke="#E976FC" stroke-width="6" x="3" y="3" width="56" height="56" rx="8"></rect>
                            <rect id="Rectangle" stroke="#271300" x="6.5" y="6.5" width="49" height="49"></rect>
                        </g>
                    </g>
                </g>
            </g>
        </g>
    </g>
</svg>