<?xml version="1.0" encoding="UTF-8"?>
<svg width="58px" height="58px" viewBox="0 0 58 58" version="1.1" xmlns="http://www.w3.org/2000/svg" xmlns:xlink="http://www.w3.org/1999/xlink">
    <!-- Generator: Sketch 61.2 (89653) - https://sketch.com -->
    <title>logo</title>
    <desc>Created with Sketch.</desc>
    <g id="ABOUT" stroke="none" stroke-width="1" fill="none" fill-rule="evenodd">
        <g id="web-design" transform="translate(-486.000000, -1429.000000)" fill-rule="nonzero">
            <g id="03-skill-set" transform="translate(0.000000, 1283.000000)">
                <g id="Skills" transform="translate(32.000000, 136.000000)">
                    <g id="JavaScript" transform="translate(454.000000, 10.000000)">
                        <g id="logo">
                            <polygon id="Path" fill="#F7DF1E" points="0 0 58 0 58 58 0 58"></polygon>
                            <path d="M10,47.7986738 L14.6255834,44.9948106 C15.5179267,46.5795695 16.32968,47.9204306 18.2767942,47.9204306 C20.1432223,47.9204306 21.3199335,47.1891216 21.3199335,44.344609 L21.3199335,25 L27,25 L27,44.4250433 C27,50.3177974 23.5515116,53 18.5202914,53 C13.9764494,53 11.3388509,50.6428022 10,47.7981933" id="Path" fill="#000000"></path>
                            <path d="M30,47.2553824 L34.4473287,44.6040277 C35.6180669,46.5726663 37.1396574,48.0187475 39.8315246,48.0187475 C42.094675,48.0187475 43.5378471,46.8536562 43.5378471,45.2467516 C43.5378471,43.3184849 42.0553736,42.6354839 39.5583524,41.5110497 L38.1932294,40.908033 C34.2524826,39.180962 31.6383876,37.0116978 31.6383876,32.4319815 C31.6383876,28.2139043 34.7595256,25 39.6365861,25 C43.1089456,25 45.6058744,26.2454557 47.4003603,29.4994471 L43.1476933,32.3113403 C42.2112874,30.5840792 41.1972014,29.9012682 39.6366785,29.9012682 C38.0370388,29.9012682 37.0225836,30.9457181 37.0225836,32.3113403 C37.0225836,33.998609 38.0370388,34.6817049 40.3776847,35.72625 L41.7430845,36.3287917 C46.3859053,38.3776996 49,40.4664098 49,45.1663872 C49,50.2283839 45.1375793,53 39.9486908,53 C34.876784,53 31.5994554,50.5094687 30,47.2553824" id="Path" fill="#000000"></path>
                        </g>
                    </g>
                </g>
            </g>
        </g>
    </g>
</svg>