<?xml version="1.0" encoding="UTF-8"?>
<svg width="73px" height="56px" viewBox="0 0 73 56" version="1.1" xmlns="http://www.w3.org/2000/svg" xmlns:xlink="http://www.w3.org/1999/xlink">
    <!-- Generator: Sketch 61.2 (89653) - https://sketch.com -->
    <title>iconfinder_288_Sass_logo_4375066</title>
    <desc>Created with Sketch.</desc>
    <g id="ABOUT" stroke="none" stroke-width="1" fill="none" fill-rule="evenodd">
        <g id="web-design" transform="translate(-32.000000, -1614.000000)" fill="#CF649A" fill-rule="nonzero">
            <g id="03-skill-set" transform="translate(0.000000, 1283.000000)">
                <g id="Skills" transform="translate(32.000000, 136.000000)">
                    <g id="Sass" transform="translate(0.000000, 195.000000)">
                        <g id="iconfinder_288_Sass_logo_4375066">
                            <path d="M62.8453757,32.1874644 C60.2909875,32.1989914 58.0789089,32.8290779 56.2316748,33.7624371 C55.5587992,32.373844 54.8630712,31.1607531 54.748968,30.2509348 C54.6124885,29.1891556 54.463948,28.5593938 54.623756,27.2995456 C54.783564,26.0393726 55.5016682,24.2544794 55.4904008,24.126384 C55.4791333,23.9981263 55.3307515,23.3563505 53.8597882,23.3446612 C52.388825,23.3331342 51.1232158,23.6362446 50.974834,24.0328695 C50.8262935,24.4294944 50.541591,25.327948 50.3705155,26.2611449 C50.1081892,27.6260346 47.4282716,32.5024265 45.9116036,35.0455016 C45.4099621,34.0541828 44.9881453,33.1789455 44.8967358,32.4790479 C44.7599389,31.4172686 44.6117158,30.7875068 44.7713651,29.5276586 C44.9310143,28.2674857 45.6492773,26.4825924 45.6378511,26.3544971 C45.6264249,26.2262393 45.4782019,25.5844635 44.0073973,25.5727742 C42.5362754,25.5612473 41.2708248,25.8643577 41.1222844,26.2611449 C40.9740613,26.6576074 40.814412,27.5909666 40.5179659,28.4895826 C40.2216784,29.3873868 36.6522637,37.5067514 35.7172205,39.6184584 C35.238114,40.6914399 34.827882,41.5548256 34.5312772,42.1383172 C34.4858898,42.231507 34.4516112,42.2899535 34.4287589,42.3367108 C34.4628787,42.2784266 34.4858898,42.2198176 34.4858898,42.243521 C34.2349897,42.7448626 34.086608,43.0249191 34.086608,43.0249191 L34.086608,43.0364461 C33.8926801,43.4096923 33.6760586,43.7478707 33.5735403,43.7478707 C33.5049832,43.7478707 33.3569188,42.7682413 33.6078189,41.4265678 C34.1435802,38.6034363 35.4093481,34.2175085 35.3979219,34.0655474 C35.3864958,33.9838846 35.6372371,33.2257028 34.5653971,32.8172262 C33.5278355,32.4322906 33.1514061,33.0740664 33.0603139,33.0740664 C32.9692218,33.0740664 32.9006647,33.3075279 32.9006647,33.3075279 C32.9006647,33.3075279 34.0524881,28.3611625 30.6884273,28.3611625 C28.5902932,28.3611625 25.6712191,30.717858 24.2345344,32.8526188 C23.3336111,33.3542852 21.3835414,34.4391184 19.331112,35.5939252 C18.5442919,36.0373073 17.7346194,36.4920541 16.9706516,36.9239093 C16.9136794,36.8653004 16.8679746,36.8070161 16.8110023,36.7487319 C12.7286786,32.2926683 5.19120203,29.1428854 5.51065925,23.1581193 C5.62460376,20.9766011 6.36587783,15.2489999 20.0039876,8.2961314 C31.1791187,2.60327343 40.1190014,4.16655674 41.6586805,7.64282866 C43.8706004,12.6008834 36.8804701,21.8284599 25.2722546,23.1581193 C20.84778,23.6597856 18.5217569,21.9099603 17.9401321,21.25682 C17.3356549,20.5686116 17.2444041,20.5333813 17.0163564,20.6618014 C16.6399269,20.871722 16.8795595,21.4784299 17.0163564,21.8399868 C17.3585073,22.7614944 18.7837658,24.3947512 21.2127833,25.2113796 C23.3448786,25.9229666 28.5334797,26.3197538 34.8050296,23.8348006 C41.8521323,21.058264 47.3371795,13.323835 45.7292607,6.84957887 C44.0873806,0.2702813 33.4254759,-1.88802053 23.3337698,1.77495569 C17.3243874,3.9564738 10.824631,7.38631317 6.14925631,11.8540662 C0.595969333,17.1738402 -0.293369113,21.8049189 0.0713167808,23.7416108 C1.37136327,30.6124918 10.6305445,35.0922588 14.3365974,38.405205 C14.1540958,38.5102465 13.9830204,38.6035987 13.8235298,38.6969508 C11.9648696,39.6416746 4.90634077,43.4213816 3.13877267,47.4114963 C1.14347426,51.9376959 3.46933869,55.1805062 4.99743289,55.6240507 C9.76389974,56.9770887 14.6444698,54.5390551 17.2672565,50.5375759 C19.8897257,46.5364213 19.5705859,41.3101618 18.3619489,38.93025 C18.350364,38.8953444 18.3276704,38.8722905 18.3164029,38.8368979 C18.795192,38.5454768 19.2854072,38.253731 19.7759399,37.9621476 C20.7222506,37.3905077 21.6460263,36.8653004 22.4555401,36.4107159 C21.999286,37.6707265 21.66872,39.1866032 21.4976446,41.3801353 C21.2924492,43.9464266 22.3301695,47.2712245 23.675762,48.57783 C24.2684956,49.1494699 24.9869173,49.1613216 25.4317452,49.1613216 C27.0053855,49.1613216 27.7122223,47.8311751 28.4990424,46.2446755 C29.4683642,44.3078212 30.3235828,42.0563296 30.3235828,42.0563296 C30.3235828,42.0563296 29.2517427,48.1462995 32.182243,48.1462995 C33.2540831,48.1462995 34.3262406,46.7346526 34.8048709,46.0113763 L34.8048709,46.0229033 C34.8048709,46.0229033 34.827882,45.9764707 34.8848543,45.8832809 C34.9987988,45.7081036 35.055771,45.6030621 35.055771,45.6030621 L35.055771,45.5678318 C35.4890141,44.80965 36.4356422,43.0713517 37.860742,40.2017876 C39.7082934,36.4918917 41.4755441,31.8604884 41.4755441,31.8604884 C41.4755441,31.8604884 41.6351933,32.9924035 42.182857,34.8704866 C42.5019968,35.9786984 43.1747137,37.1919517 43.7106338,38.3702995 C43.2775494,38.9768449 43.0150645,39.3268749 43.0150645,39.3268749 C43.0150645,39.3268749 43.0150645,39.3384019 43.0261733,39.3500912 C42.6841811,39.8170143 42.2966428,40.3186807 41.8975196,40.8086578 C40.4378239,42.5816993 38.7045343,44.6117434 38.4766453,45.1949103 C38.2027342,45.8832809 38.2712913,46.3961496 38.7959439,46.7930992 C39.1834821,47.0965342 39.8677839,47.1429668 40.5860469,47.0848449 C41.8975196,46.9911681 42.8211366,46.6648414 43.2658059,46.4544338 C43.9726427,46.198243 44.7939001,45.7896041 45.569294,45.2181265 C46.9947112,44.145145 47.8615146,42.6052403 47.7813726,40.5753585 C47.7358266,39.4554574 47.3820908,38.3353939 46.9488477,37.2857909 C47.0743771,37.0989243 47.2113327,36.9003683 47.3367034,36.7024617 C49.5948042,33.3305819 51.3393612,29.6330248 51.3393612,29.6330248 C51.3393612,29.6330248 51.4990105,30.7642905 52.046198,32.6425359 C52.3199505,33.5875844 52.8558705,34.6258227 53.3460858,35.6405201 C51.2250993,37.402197 49.913944,39.4439304 49.4576899,40.7851168 C48.6137388,43.27007 49.2751882,44.3896464 50.5181038,44.6468113 C51.0768762,44.7633798 51.8751225,44.4948503 52.4681735,44.2381724 C53.2092889,43.9814946 54.098786,43.5731804 54.9311522,42.9432563 C56.3565694,41.8702747 57.7364405,40.3651133 57.6453484,38.3237046 C57.6109112,37.4020347 57.3601698,36.4805271 57.0294451,35.5939252 C58.8195481,34.8242164 61.146206,34.4038881 64.1108262,34.7540805 C70.4623595,35.5122623 71.7051164,39.5718635 71.4656425,41.2632422 C71.226486,42.9666349 69.8923196,43.8999941 69.4474917,44.1798882 C69.0025051,44.4599447 68.8658669,44.5649861 68.9003042,44.7749067 C68.9571177,45.0781795 69.162313,45.0666525 69.5385838,44.9963543 C70.0633951,44.9031645 72.868366,43.6197753 72.993578,40.4816817 C73.176397,36.5152704 69.4478091,32.1525588 62.8453757,32.1874644 L62.8453757,32.1874644 Z M13.8919282,49.0676447 C11.7939528,51.4124885 8.85186761,52.2990905 7.58625838,51.5524356 C6.22923964,50.7478212 6.76515968,47.2946032 9.35366778,44.7979606 C10.927308,43.2815969 12.9570437,41.8818017 14.3026363,41.0185783 C14.6105086,40.8320364 15.0553365,40.5519799 15.6026828,40.2136392 C15.6939336,40.1556797 15.7394797,40.1321387 15.7394797,40.1321387 C15.841998,40.0618405 15.9561012,40.0037186 16.0702044,39.9335828 C17.0163564,43.4799906 16.1041655,46.6062325 13.8919282,49.0676447 L13.8919282,49.0676447 Z M29.2177815,38.405205 C28.4879336,40.2365308 26.9484132,44.9030021 26.0136874,44.6580136 C25.2154411,44.4479307 24.7249084,40.8899959 25.8540381,37.3905077 C26.4240781,35.6288308 27.632715,33.5291378 28.3512954,32.7126718 C29.5028015,31.3942146 30.7685694,30.9742111 31.0651742,31.4992561 C31.4641387,32.1874644 29.6737182,37.2620876 29.2177815,38.405205 L29.2177815,38.405205 Z M41.8749846,44.5883648 C41.567271,44.7515281 41.2820923,44.8564072 41.1452955,44.7747444 C41.0427771,44.7164602 41.2708248,44.4946879 41.2708248,44.4946879 C41.2708248,44.4946879 42.8555739,42.7565519 43.4829035,41.9629775 C43.8477481,41.4965414 44.2695649,40.9481178 44.725819,40.3417346 C44.725819,40.3996941 44.7369278,40.4584654 44.7369278,40.5281142 C44.7259777,42.6166049 42.7646405,44.0284142 41.8749846,44.5883648 Z M51.6362834,42.3133321 C51.4082357,42.1500065 51.4421969,41.6017452 52.2063233,39.8983525 C52.5029282,39.2333604 53.18723,38.1136216 54.3728559,37.0403154 C54.5098115,37.4835352 54.5894774,37.9033763 54.5894774,38.3000012 C54.5778925,40.9249015 52.7422434,41.9048556 51.6362834,42.3133321 L51.6362834,42.3133321 Z" id="Shape"></path>
                        </g>
                    </g>
                </g>
            </g>
        </g>
    </g>
</svg>