<?xml version="1.0" encoding="UTF-8"?>
<svg width="69px" height="62px" viewBox="0 0 69 62" version="1.1" xmlns="http://www.w3.org/2000/svg" xmlns:xlink="http://www.w3.org/1999/xlink">
    <!-- Generator: Sketch 61.2 (89653) - https://sketch.com -->
    <title>icons8-react-native</title>
    <desc>Created with Sketch.</desc>
    <g id="ABOUT" stroke="none" stroke-width="1" fill="none" fill-rule="evenodd">
        <g id="web-design" transform="translate(-32.000000, -1522.000000)" fill="#80DEEA" fill-rule="nonzero">
            <g id="03-skill-set" transform="translate(0.000000, 1283.000000)">
                <g id="Skills" transform="translate(32.000000, 136.000000)">
                    <g id="React" transform="translate(0.000000, 103.000000)">
                        <g id="icons8-react-native">
                            <path d="M34.5,46 C15.15,46 0,39.4 0,31 C0,22.6 15.15,16 34.5,16 C53.85,16 69,22.6 69,31 C69,39.4 53.85,46 34.5,46 Z M34.5,19 C15.6,19 3,25.15 3,31 C3,36.85 15.6,43 34.5,43 C53.4,43 66,36.85 66,31 C66,25.15 53.4,19 34.5,19 Z" id="Shape"></path>
                            <path d="M21.3095334,62 C19.8193424,62 18.6271896,61.698626 17.4350368,60.9451908 C10.1331008,56.7259542 12.0703491,40.3010688 21.6075716,23.4241222 L21.6075716,23.4241222 C26.0781447,15.5883971 31.5918515,8.95816809 36.9565391,4.73893146 C42.7682841,0.218320789 47.9839527,-1.13786241 51.5604111,0.971755902 C55.2858887,3.08137422 56.6270606,8.35542 55.732946,15.7390841 C54.8388314,22.6706871 51.8584494,30.8077863 47.3878763,38.6435115 C42.9173032,46.4792367 37.4035965,53.1094657 32.0389088,57.3287023 C28.1644121,60.3424428 24.4389346,62 21.3095334,62 Z M47.8349336,2.93068719 C45.450628,2.93068719 42.3212268,4.2868704 38.8937875,6.9992368 C33.827138,11.0677864 28.6114694,17.3966414 24.2899155,24.9309925 L24.2899155,24.9309925 C14.9017121,41.3558779 14.0075974,55.520458 18.9252278,58.3835115 C21.4585525,59.8903817 25.6310874,58.5341985 30.2506796,54.9177099 C35.317329,50.8491603 40.5329976,44.5203054 44.8545516,36.9859543 C49.1761055,29.4516031 52.0074685,21.766565 52.9015831,15.287023 C53.6466786,9.25954214 52.752564,5.04030551 50.2192392,3.53343528 C49.4741437,3.23206124 48.7290482,2.93068719 47.8349336,2.93068719 Z" id="Shape"></path>
                            <path d="M48.6242484,62 C41.0347042,62 30.1057606,52.8089885 21.9090528,38.4951181 C12.0426454,21.6198182 10.0693639,5.19653534 17.5071172,0.977710376 L17.5071172,0.977710376 C24.9448705,-3.24111459 38.3024683,6.55258622 48.1688757,23.4278861 C52.7226022,31.2628467 55.7584199,39.399152 56.6691652,46.3300787 C57.7317014,53.7130224 56.2137925,58.8358813 52.4190204,61.0959661 C51.2046934,61.6986554 49.9903663,62 48.6242484,62 Z M19.025026,3.53913982 C14.0159269,6.4019139 14.9266722,20.565112 24.4894979,36.9883949 C34.0523235,53.4116778 45.8920124,61.2466384 50.9011116,58.3838643 C53.4815566,56.8771411 54.3923019,52.6583162 53.6333475,46.6314234 C52.7226022,40.1525136 49.8385754,32.4682253 45.4366398,24.9346093 C35.8738141,8.51132638 24.0341252,0.676365736 19.025026,3.53913982 L19.025026,3.53913982 Z" id="Shape"></path>
                            <circle id="Oval" cx="34.5" cy="31.5" r="6.5"></circle>
                        </g>
                    </g>
                </g>
            </g>
        </g>
    </g>
</svg>