<?xml version="1.0" encoding="UTF-8"?>
<svg width="62px" height="62px" viewBox="0 0 62 62" version="1.1" xmlns="http://www.w3.org/2000/svg" xmlns:xlink="http://www.w3.org/1999/xlink">
    <!-- Generator: Sketch 61.2 (89653) - https://sketch.com -->
    <title>logo</title>
    <desc>Created with Sketch.</desc>
    <g id="ABOUT" stroke="none" stroke-width="1" fill="none" fill-rule="evenodd">
        <g id="web-design" transform="translate(-484.000000, -1428.000000)" fill-rule="nonzero">
            <g id="03-skill-set" transform="translate(0.000000, 1283.000000)">
                <g id="Skills" transform="translate(32.000000, 136.000000)">
                    <g id="JavaScript" transform="translate(452.000000, 9.000000)">
                        <g id="logo">
                            <polygon id="Path" fill="#F7DF1E" points="0 0 62 0 62 62 0 62"></polygon>
                            <path d="M10.7460317,50.5949735 L15.8337416,47.6385191 C16.8152359,49.3095234 17.7080888,50.7233566 19.8497326,50.7233566 C21.9026292,50.7233566 23.1969017,49.9522484 23.1969017,46.9529324 L23.1969017,26.5555556 L29.4444444,26.5555556 L29.4444444,47.0377441 C29.4444444,53.2511922 25.6514292,56.0793651 20.1175567,56.0793651 C15.1197548,56.0793651 12.2186427,53.5938844 10.7460317,50.5944668" id="Path" fill="#000000"></path>
                            <path d="M31.4126984,50.0221152 L36.2501437,47.2264691 C37.5235783,49.3022446 39.1786415,50.827024 42.1066375,50.827024 C44.5683098,50.827024 46.138076,49.5985264 46.138076,47.9041712 C46.138076,45.8709648 44.5255609,45.1507937 41.8095028,43.9651658 L40.3246321,43.3293318 C36.0382058,41.5082705 33.1948043,39.2209512 33.1948043,34.3919986 C33.1948043,29.9443663 36.5897263,26.5555556 41.8945991,26.5555556 C45.6715516,26.5555556 48.3875092,27.8687912 50.3394061,31.2998705 L45.7136982,34.2647919 C44.6951514,32.4435302 43.5921105,31.7235595 41.8946996,31.7235595 C40.1547406,31.7235595 39.0512981,32.8248502 39.0512981,34.2647919 C39.0512981,36.0438848 40.1547406,36.764156 42.7007064,37.865547 L44.1858781,38.5008801 C49.2359638,40.6612932 52.0793651,42.8636747 52.0793651,47.8194332 C52.0793651,53.1569128 47.8781355,56.0793651 42.2340814,56.0793651 C36.7172704,56.0793651 33.1524569,53.4532946 31.4126984,50.0221152" id="Path" fill="#000000"></path>
                        </g>
                    </g>
                </g>
            </g>
        </g>
    </g>
</svg>