<?xml version="1.0" encoding="UTF-8"?>
<svg width="68px" height="62px" viewBox="0 0 68 62" version="1.1" xmlns="http://www.w3.org/2000/svg" xmlns:xlink="http://www.w3.org/1999/xlink">
    <!-- Generator: Sketch 61.2 (89653) - https://sketch.com -->
    <title>iconfinder_303_Sketch_logo_4375079</title>
    <desc>Created with Sketch.</desc>
    <g id="ABOUT" stroke="none" stroke-width="1" fill="none" fill-rule="evenodd">
        <g id="web-design" transform="translate(-478.000000, -1529.000000)" fill-rule="nonzero">
            <g id="03-skill-set" transform="translate(0.000000, 1283.000000)">
                <g id="Skills" transform="translate(32.000000, 136.000000)">
                    <g id="sketch" transform="translate(446.000000, 110.000000)">
                        <g id="iconfinder_303_Sketch_logo_4375079">
                            <polygon id="Path" fill="#FFAE00" points="55 23 13 23.0067315 34.3493082 62"></polygon>
                            <polygon id="Path" fill="#EC6C00" points="12.5615167 23 0 23 34 62"></polygon>
                            <polygon id="Path" fill="#EC6C00" points="55.1627491 23 34 62 68 23.0905392 55.1627491 23.0148766"></polygon>
                            <polygon id="Path" fill="#FFAE00" points="54.4330803 3.88334901 53 2 53.1371157 4.58571002 55.0526402 23 68 23"></polygon>
                            <polygon id="Path" fill="#FFAE00" points="0 23 12.8775429 23 13.8636237 4.59274967 14 2 12.5746474 3.88831541"></polygon>
                            <polygon id="Path" fill="#FED305" points="13.7115926 9.6227223 13 23 34 0 14.1139973 2.15274649"></polygon>
                            <polygon id="Path" fill="#FED305" points="53.0403734 2.04605263 34 0 55 23"></polygon>
                            <polygon id="Path" fill="#FFEFB4" points="13 23 55 23 42.9472402 9.79111055 34.0147791 0"></polygon>
                        </g>
                    </g>
                </g>
            </g>
        </g>
    </g>
</svg>