<?xml version="1.0" encoding="UTF-8"?>
<svg width="62px" height="63px" viewBox="0 0 62 63" version="1.1" xmlns="http://www.w3.org/2000/svg" xmlns:xlink="http://www.w3.org/1999/xlink">
    <!-- Generator: Sketch 61.2 (89653) - https://sketch.com -->
    <title>icons8-adobe-photoshop</title>
    <desc>Created with Sketch.</desc>
    <g id="ABOUT" stroke="none" stroke-width="1" fill="none" fill-rule="evenodd">
        <g id="web-design" transform="translate(-484.000000, -1615.000000)" fill-rule="nonzero">
            <g id="03-skill-set" transform="translate(0.000000, 1283.000000)">
                <g id="Skills" transform="translate(32.000000, 136.000000)">
                    <g id="Photoshop" transform="translate(452.000000, 196.000000)">
                        <g id="icons8-adobe-photoshop">
                            <path d="M0,7 C0,3.13425 3.0845,0 6.88888889,0 L55.1111111,0 C58.9155,0 62,3.13425 62,7 L62,56 C62,59.86575 58.9155,63 55.1111111,63 L6.88888889,63 C3.0845,63 0,59.86575 0,56 L0,7 Z" id="Path" fill="#03A9F4"></path>
                            <path d="M24.2535211,23 L21,23 L21,31 L24.2063922,31 C25.0953413,31 25.7827736,30.677041 26.2703142,30.0311231 C26.7578548,29.3852052 27,28.4451962 27,27.2110961 C27,25.9300857 26.7513543,24.9124944 26.2540628,24.1547136 C25.7567714,23.3969328 25.0888407,23.0126297 24.2535211,23 Z" id="Path" fill="#020F16"></path>
                            <path d="M6,6 L6,58 L57,58 L57,6 L6,6 Z M30.4205,33.3676 C29.0163,34.7681333 27.0681,35.4666667 24.5776,35.4666667 L21.3238,35.4666667 L21.3238,44.1333333 L16.4431,44.1333333 L16.4431,19.4870667 L24.6779,19.4870667 C27.0681,19.4870667 28.9755,20.2445333 30.3967,21.756 C31.8179,23.2674667 32.5302,25.2313333 32.5302,27.6458667 C32.5302,30.0604 31.8264,31.9670667 30.4205,33.3676 Z M46.2594,42.9824 C45.0541,43.9756 43.4697,44.4713333 41.5113,44.4713333 C40.1938,44.4713333 39.031,44.2096 38.0246,43.6844 C37.0182,43.1592 36.2277,42.4277333 35.6582,41.4917333 C35.0887,40.5557333 34.8031,39.5452 34.8031,38.4618667 L39.269,38.4618667 C39.2928,39.2956 39.4815,39.9230667 39.8419,40.3408 C40.2023,40.7585333 40.7905,40.9665333 41.6099,40.9665333 C42.8713,40.9665333 43.502,40.3858667 43.502,39.2228 C43.502,38.8172 43.3116,38.4410667 42.9291,38.0978667 C42.5466,37.7546667 41.7,37.2901333 40.3825,36.7025333 C38.4462,35.9017333 37.1151,35.0732 36.3892,34.2134667 C35.6633,33.3537333 35.3012,32.2894667 35.3012,31.0137333 C35.3012,29.4104 35.869,28.0878667 37.0029,27.0444 C38.1368,26.0009333 39.6413,25.4792 41.5096,25.4792 C43.4782,25.4792 45.0558,25.9992 46.2407,27.0357333 C47.4256,28.0722667 48.0172,29.4676 48.0172,31.2165333 L43.3184,31.2165333 C43.3184,29.7276 42.7115,28.9822667 41.4926,28.9822667 C40.9945,28.9822667 40.5865,29.14 40.2635,29.4554667 C39.9405,29.7709333 39.7824,30.2129333 39.7824,30.7762667 C39.7824,31.1818667 39.9592,31.5406667 40.3145,31.8509333 C40.6698,32.1612 41.5028,32.6049333 42.822,33.1804 C44.7379,33.9032 46.0894,34.7074667 46.8816,35.5932 C47.6738,36.4789333 48.0682,37.6281333 48.0682,39.0373333 C48.0682,40.6753333 47.4647,41.9892 46.2594,42.9824 Z" id="Shape" fill="#020F16"></path>
                        </g>
                    </g>
                </g>
            </g>
        </g>
    </g>
</svg>