<?xml version="1.0" encoding="UTF-8"?>
<svg width="73px" height="73px" viewBox="0 0 73 73" version="1.1" xmlns="http://www.w3.org/2000/svg" xmlns:xlink="http://www.w3.org/1999/xlink">
    <!-- Generator: Sketch 61.2 (89653) - https://sketch.com -->
    <title>logo</title>
    <desc>Created with Sketch.</desc>
    <g id="ABOUT" stroke="none" stroke-width="1" fill="none" fill-rule="evenodd">
        <g id="web-design" transform="translate(-32.000000, -1419.000000)" fill-rule="nonzero">
            <g id="03-skill-set" transform="translate(0.000000, 1283.000000)">
                <g id="Skills" transform="translate(32.000000, 136.000000)">
                    <g id="HTML">
                        <g id="html-&amp;-css">
                            <g id="logo">
                                <g id="css-3">
                                    <polygon id="Path" fill="#264DE4" points="18.9767433 55 3.45823111 50.6202417 0 11.1864407 38 11.1864407 34.5381023 50.6140645"></polygon>
                                    <polygon id="Path" fill="#2965F1" points="32.2185531 47.722175 35.2195122 13.9830508 19.4634146 13.9830508 19.4634146 51.2711864"></polygon>
                                    <polygon id="Path" fill="#EBEBEB" points="8.34146341 28.8983051 8.7340658 33.559322 18.5365854 33.559322 18.5365854 28.8983051"></polygon>
                                    <polygon id="Path" fill="#EBEBEB" points="7.41463415 18.6440678 7.8514326 23.3050847 19.4634146 23.3050847 19.4634146 18.6440678"></polygon>
                                    <polygon id="Path" fill="#EBEBEB" points="18.5365854 41.615869 18.5162138 41.6214648 13.3389578 40.1796804 13.0079959 36.3559322 8.34146341 36.3559322 8.99274079 43.8838076 18.5151901 46.6101695 18.5365854 46.604046"></polygon>
                                    <polygon id="Path" fill="#000000" points="9.26829268 0 14.8292683 0 14.8292683 2.48587571 11.5937916 2.48587571 11.5937916 4.97175142 14.8292683 4.97175142 14.8292683 7.45762712 9.26829268 7.45762712"></polygon>
                                    <polygon id="Path" fill="#000000" points="15.7560976 0 21.3170732 0 21.3170732 2.13075061 18.0815964 2.13075061 18.0815964 2.55690073 21.3170732 2.55690073 21.3170732 7.45762712 15.7560976 7.45762712 15.7560976 5.22033899 18.9915742 5.22033899 18.9915742 4.79418886 15.7560976 4.79418886"></polygon>
                                    <polygon id="Path" fill="#000000" points="22.2439024 0 27.804878 0 27.804878 2.13075061 24.5694013 2.13075061 24.5694013 2.55690073 27.804878 2.55690073 27.804878 7.45762712 22.2439024 7.45762712 22.2439024 5.22033899 25.4793792 5.22033899 25.4793792 4.79418886 22.2439024 4.79418886"></polygon>
                                    <polygon id="Path" fill="#FFFFFF" points="29.7170367 28.6406467 30.5853659 18.6440678 18.5365854 18.6440678 18.5365854 23.5830817 25.31417 23.5830817 24.8765102 28.6406467 18.5365854 28.6406467 18.5365854 33.5795518 24.4593986 33.5795518 23.9010965 39.9850105 18.5365854 41.4717939 18.5365854 46.6101695 28.3970665 43.8039881 28.4694095 42.9695623 29.5996777 29.9668967"></polygon>
                                </g>
                                <g id="html-5" transform="translate(34.000000, 18.000000)">
                                    <polygon id="Path" fill="#E44D26" points="39 10.2542373 35.4469997 50.5207467 19.4761313 55 3.54923719 50.5270553 0 10.2542373"></polygon>
                                    <polygon id="Path" fill="#F16529" points="19.5 51.2711864 32.2791143 47.722175 35.2857143 13.9830508 19.5 13.9830508"></polygon>
                                    <polygon id="Path" fill="#EBEBEB" points="12.6897586 23.576392 19.5 23.576392 19.5 18.6440678 7.42857143 18.6440678 7.54380699 19.9673266 8.72701223 33.559322 19.5 33.559322 19.5 28.6271066 13.1297103 28.6271066"></polygon>
                                    <polygon id="Path" fill="#EBEBEB" points="13.9610184 36.3559322 9.28571429 36.3559322 9.93821587 43.8838076 19.4785645 46.6101695 19.5 46.604046 19.5 41.615869 19.4795901 41.6214648 14.2926025 40.1796804"></polygon>
                                    <polygon id="Path" fill="#000000" points="3.71428571 0 6.2628495 0 6.2628495 2.46268898 8.59418292 2.46268898 8.59418292 0 11.1428571 0 11.1428571 7.45762712 8.59429336 7.45762712 8.59429336 4.96037408 6.26295993 4.96037408 6.26295993 7.45762712 3.71439614 7.45762712 3.71439614 0"></polygon>
                                    <polygon id="Path" fill="#000000" points="14.1438391 2.4730582 12.0714286 2.4730582 12.0714286 0 18.5714286 0 18.5714286 2.4730582 16.4981 2.4730582 16.4981 7.45762712 14.1439411 7.45762712 14.1439411 2.4730582"></polygon>
                                    <polygon id="Path" fill="#000000" points="20.4285714 0 23.0159051 0 24.6074654 2.62038749 26.1974127 0 28.7857143 0 28.7857143 7.45762712 26.3146132 7.45762712 26.3146132 3.76121736 24.6074654 6.41282052 24.5647786 6.41282052 22.856448 3.76121736 22.856448 7.45762712 20.4285714 7.45762712"></polygon>
                                    <polygon id="Path" fill="#000000" points="29.7142857 0 32.0300546 0 32.0300546 4.99256185 35.2857143 4.99256185 35.2857143 7.45762712 29.7142857 7.45762712"></polygon>
                                    <polygon id="Path" fill="#FFFFFF" points="19.5 33.766393 25.4028978 33.766393 24.8464729 40.0800062 19.5 41.5454711 19.5 46.6101695 29.3273253 43.8442249 29.3994251 43.0217636 30.5258928 30.2055384 30.6428571 28.8983051 19.5 28.8983051"></polygon>
                                    <polygon id="Path" fill="#FFFFFF" points="19.5 23.2936916 19.5 23.3050847 31.1399498 23.3050847 31.236624 22.257431 31.4561835 19.8945395 31.5714286 18.6440678 19.5 18.6440678"></polygon>
                                </g>
                            </g>
                        </g>
                    </g>
                </g>
            </g>
        </g>
    </g>
</svg>