<?xml version="1.0" encoding="UTF-8"?>
<svg width="62px" height="62px" viewBox="0 0 62 62" version="1.1" xmlns="http://www.w3.org/2000/svg" xmlns:xlink="http://www.w3.org/1999/xlink">
    <!-- Generator: Sketch 61.2 (89653) - https://sketch.com -->
    <title>icons8-adobe-illustrator</title>
    <desc>Created with Sketch.</desc>
    <g id="ABOUT" stroke="none" stroke-width="1" fill="none" fill-rule="evenodd">
        <g id="web-design" transform="translate(-32.000000, -1700.000000)" fill-rule="nonzero">
            <g id="03-skill-set" transform="translate(0.000000, 1283.000000)">
                <g id="Skills" transform="translate(32.000000, 136.000000)">
                    <g id="Illustrator" transform="translate(0.000000, 281.000000)">
                        <g id="icons8-adobe-illustrator">
                            <path d="M0,6.88888889 C0,3.0845 3.0845,0 6.88888889,0 L55.1111111,0 C58.9155,0 62,3.0845 62,6.88888889 L62,55.1111111 C62,58.9155 58.9155,62 55.1111111,62 L6.88888889,62 C3.0845,62 0,58.9155 0,55.1111111 L0,6.88888889 Z" id="Path" fill="#FF5722"></path>
                            <path d="M6,6 L6,57 L57,57 L57,6 L6,6 Z M30.9747,43.4 L29.6793,38.453 L23.0221,38.453 L21.7284,43.4 L16.5655,43.4 L24.1186,19.2277 L28.5845,19.2277 L36.1886,43.4 L30.9747,43.4 Z M43.145,43.4 L38.4309,43.4 L38.4309,25.4378 L43.145,25.4378 L43.145,43.4 Z M42.6384,22.5818 C42.1777,23.0578 41.5572,23.2958 40.7701,23.2958 C39.983,23.2958 39.3625,23.0578 38.9018,22.5818 C38.4411,22.1058 38.2133,21.5074 38.2133,20.7883 C38.2133,20.0573 38.4462,19.4606 38.9103,18.9948 C39.3744,18.529 39.9966,18.2978 40.7701,18.2978 C41.5436,18.2978 42.1641,18.5307 42.6299,18.9948 C43.0957,19.4589 43.3269,20.0573 43.3269,20.7883 C43.3269,21.5074 43.0974,22.1058 42.6384,22.5818 Z" id="Shape" fill="#1C0802"></path>
                            <polygon id="Path" fill="#1C0802" points="24 34 29 34 26.5 25"></polygon>
                        </g>
                    </g>
                </g>
            </g>
        </g>
    </g>
</svg>