<?xml version="1.0" encoding="UTF-8"?>
<svg width="62px" height="62px" viewBox="0 0 62 62" version="1.1" xmlns="http://www.w3.org/2000/svg" xmlns:xlink="http://www.w3.org/1999/xlink">
    <!-- Generator: Sketch 61.2 (89653) - https://sketch.com -->
    <title>icons8-adobe-after-effects</title>
    <desc>Created with Sketch.</desc>
    <g id="ABOUT" stroke="none" stroke-width="1" fill="none" fill-rule="evenodd">
        <g id="web-design" transform="translate(-32.000000, -1792.000000)" fill-rule="nonzero">
            <g id="03-skill-set" transform="translate(0.000000, 1283.000000)">
                <g id="Skills" transform="translate(32.000000, 136.000000)">
                    <g id="After-Effect" transform="translate(0.000000, 373.000000)">
                        <g id="icons8-adobe-after-effects">
                            <path d="M0,6.88888889 C0,3.0845 3.0845,0 6.88888889,0 L55.1111111,0 C58.9155,0 62,3.0845 62,6.88888889 L62,55.1111111 C62,58.9155 58.9155,62 55.1111111,62 L6.88888889,62 C3.0845,62 0,58.9155 0,55.1111111 L0,6.88888889 Z" id="Path" fill="#B388FF"></path>
                            <polygon id="Path" fill="#170B40" points="6 6 6 57 57 57 57 6"></polygon>
                            <path d="M27.028,37.7971429 L19.2194286,37.7971429 L17.7348571,42.676 L13,42.676 L21.0468571,19 L25.1731429,19 L33.2628571,42.6742857 L28.528,42.6742857 L27.028,37.7971429 Z M20.4228571,33.8457143 L25.8262857,33.8457143 L23.1108571,24.9828571 L20.4228571,33.8457143 Z M42.3931429,43 C41.1451429,43 40.0291429,42.7771429 39.0451429,42.3331429 C38.0594286,41.8891429 37.2245714,41.2805714 36.5354286,40.5108571 C35.8462857,39.7411429 35.3234286,38.8394286 34.9617143,37.804 C34.6017143,36.7685714 34.42,35.6611429 34.42,34.4782857 L34.42,33.844 C34.42,32.5102857 34.5965714,31.288 34.948,30.1771429 C35.2977143,29.0662857 35.7982857,28.1097143 36.448,27.3074286 C37.0942857,26.5051429 37.8828571,25.8794286 38.8068571,25.4285714 C39.7325714,24.9794286 40.7697143,24.7531429 41.9165714,24.7531429 C43.0737143,24.7531429 44.0937143,24.9622857 44.9748571,25.3788571 C45.856,25.7954286 46.5948571,26.3817143 47.1948571,27.136 C47.7931429,27.8885714 48.244,28.7971429 48.5457143,29.86 C48.8474286,30.9228571 49,32.1057143 49,33.4068571 L49,35.4074286 L38.7725714,35.4074286 C38.8411429,35.9817143 38.9834286,36.5028571 39.196,36.9674286 C39.4085714,37.4337143 39.6811429,37.8314286 40.012,38.1622857 C40.3428571,38.4931429 40.732,38.7502857 41.176,38.9354286 C41.6217143,39.1205714 42.1222857,39.2114286 42.676,39.2114286 C43.4577143,39.2114286 44.1811429,39.052 44.8428571,38.7314286 C45.5062857,38.4125714 46.0754286,37.9154286 46.5502857,37.2434286 L48.6588571,39.8285714 C48.4017143,40.2297143 48.0794286,40.6205714 47.6937143,40.9994286 C47.308,41.3782857 46.852,41.7177143 46.3274286,42.016 C45.8028571,42.3142857 45.2131429,42.5525714 44.5531429,42.7308571 C43.8948571,42.9108571 43.1765714,43 42.3931429,43 Z M41.9045714,28.5605714 C41.4382857,28.5605714 41.032,28.6497143 40.6788571,28.8297143 C40.3274286,29.008 40.0257143,29.2582857 39.7737143,29.5771429 C39.5217143,29.896 39.316,30.2782857 39.1582857,30.724 C39.0005714,31.168 38.8874286,31.6617143 38.8188571,32.2034286 L44.7862857,32.2034286 L44.7862857,31.8297143 C44.776,31.3634286 44.7142857,30.9297143 44.5994286,30.5285714 C44.4862857,30.1274286 44.3131429,29.7811429 44.08,29.488 C43.8468571,29.1948571 43.5502857,28.9685714 43.1902857,28.8057143 C42.8251429,28.6428571 42.3982857,28.5605714 41.9045714,28.5605714 Z" id="Shape" fill="#B388FF"></path>
                        </g>
                    </g>
                </g>
            </g>
        </g>
    </g>
</svg>